<?xml version="1.0" encoding="utf-8"?>
<!-- Generator: Adobe Illustrator 19.1.0, SVG Export Plug-In . SVG Version: 6.00 Build 0)  -->
<svg version="1.1" id="Слой_1" xmlns="http://www.w3.org/2000/svg" xmlns:xlink="http://www.w3.org/1999/xlink" x="0px" y="0px"
	 viewBox="-106.2 379.7 239.2 33.6" style="enable-background:new -106.2 379.7 239.2 33.6;" xml:space="preserve">
<style type="text/css">
	.st0{fill:#013A81;}
	.st1{fill:#00B259;}
	.st2{fill:none;enable-background:new    ;}
</style>
<g>
	<path class="st0" d="M22.6,413h-3.9c-0.7,0-1.5-0.5-1.8-1.2l-0.5-1.6l-9.3-23.4c-0.1-0.4-0.3-0.9-0.7-0.9c-0.5,0-0.7,0.6-0.8,0.9
		l-7.6,19.1l-0.5,1.2h0l-1.8,4.8c-0.3,0.7-1.1,1.2-1.8,1.2h-3.9c-0.7,0-1.1-0.5-0.8-1.2l1.8-4.7c0,0,0,0,0,0l0.5-1.2l9.7-23
		c0.6-1.5,1.5-3.1,5-3.1c3.4,0,4.3,1.6,5,3.1l9.9,23.4l0.6,1.3l1.6,4.2C23.7,412.4,23.4,413,22.6,413z M-12.4,413h-3.8
		c-0.7,0-1.5-0.5-1.8-1.2l-2.4-6.5c-0.3-0.7-1.1-1.2-1.8-1.2h-13c-0.7,0-1.5,0.5-1.8,1.2l-2.3,6.5c-0.3,0.7-1.1,1.2-1.8,1.2H-45
		c-0.7,0-1.1-0.5-0.8-1.2l11.8-28.4c1.2-2.7,2.4-3.7,5.3-3.7c2.8,0,4.2,0.9,5.3,3.7l11.8,28.4C-11.3,412.4-11.7,413-12.4,413z
		 M-23,398.8l-4.3-10.8c-0.3-0.7-0.7-1.8-0.9-2.4c0,0,0-0.1-0.5-0.1s-0.5,0.1-0.5,0.1c-0.3,0.7-0.7,1.8-1,2.4l-4.4,10.8
		c-0.3,0.7,0.1,1.2,0.8,1.2h9.9C-23.1,400-22.7,399.5-23,398.8z M-50.7,401H-66v10.6c0,0.7-0.6,1.3-1.3,1.3h-3.4
		c-0.7,0-1.3-0.6-1.3-1.3V385c0-1.2,0-2.5,1.1-3.6c1.1-1.1,2.6-1.3,3.7-1.3h15.4c1.7,0,4.5,0,6.5,2c2.2,2.1,2.5,5.8,2.5,8.5
		c0,2.6-0.3,6.7-2.8,8.8C-46.9,400.4-48.8,401-50.7,401z M-50.4,386.1c-1.1-1.1-2.8-1.1-3.8-1.1h-10c-0.4,0-1,0-1.4,0.4
		c-0.4,0.4-0.4,1-0.4,1.5v9.2h11.7c1.3,0,2.9,0.1,4-1.1c1-1.1,1.1-3.2,1.1-4.5C-49.2,389.1-49.4,387.2-50.4,386.1z M-89.5,411.8
		c-0.3,0.6-1.2,1.2-1.9,1.2h-4c-0.7,0-1-0.5-0.7-1.1l2.7-5.2c0.3-0.6,0.3-1.7,0-2.3l-12.6-23c-0.3-0.6,0-1.1,0.7-1.1h4.2
		c0.7,0,1.6,0.5,1.9,1.2l9.1,17.4c0.3,0.6,0.9,0.6,1.2,0l8.7-17.4c0.3-0.6,1.2-1.2,1.9-1.2h4.1c0.7,0,1,0.5,0.7,1.2L-89.5,411.8z"/>
	<path class="st1" d="M131.7,413h-3.5c-0.7,0-1.3-0.6-1.3-1.3l0.2-24.3c0,0-0.4-1-0.6-1c-0.3,0-0.7,0.7-0.8,1.1l-8.3,21.7
		c-1.1,2.9-2,4.2-4.6,4.2c-2.5,0-3.5-1.2-4.6-4.2l-7.8-21.7c-0.1-0.4-0.5-1.1-0.8-1.1c-0.5,0-0.5,0.8-0.5,1l0,24.3
		c0,0.7-0.6,1.3-1.3,1.3h-3.4c-0.7,0-1.3-0.6-1.3-1.3V384c0-4.2,4.3-4.3,5.2-4.3c2.4,0,3.8,0.6,5.2,4.2l8.4,21.7
		c0.3,0.7,0.6,1.2,0.9,1.2c0.3,0,0.6-0.5,0.9-1.2l8.4-21.7c1.4-3.6,3.3-4.2,5.7-4.2c3,0,5.2,1.3,5.2,4.3v27.6
		C133,412.4,132.4,413,131.7,413z M87.6,413h-3.4c-0.7,0-1.3-0.6-1.3-1.3l0.1-23.7c0-0.5,0-1.1-0.5-1.1c-0.4,0-0.7,0.7-1.2,1.5
		l-13.8,21.6c-0.9,1.4-1.6,3.4-4.9,3.4c-4.7,0-4.8-4-4.8-5.9v-26c0-0.7,0.6-1.3,1.3-1.3h3.4c0.7,0,1.3,0.6,1.3,1.3l-0.1,22.9
		c0,0.7,0,1.5,0.6,1.5c0.4,0,0.6-0.6,0.9-1l13.3-21.5c1.8-2.9,3.2-3.6,5.4-3.6c4.9,0,5,4.2,5,5.9v26.1C88.9,412.4,88.4,413,87.6,413
		z M54.5,413h-4.6c-0.7,0-1.6-0.5-2.1-1.1l-7.9-11.4l-4.5,6.3l-1.2,1.7l-2.2,3.5c-0.4,0.6-1.3,1.1-2.1,1.1h-4.6c-0.7,0-1-0.5-0.5-1
		l3.8-5.3c0,0,0,0,0,0l7.9-10.5l-11.3-15c-0.4-0.6-0.2-1,0.5-1h4.6c0.7,0,1.6,0.5,2.1,1.1l2.8,4l1.3,1.9l3.4,4.8l1.6-2.3l1.5-2.2
		l4.4-6.2c0.4-0.6,1.3-1.1,2.1-1.1h4.6c0.7,0,1,0.5,0.5,1l-11.3,15l5.2,6.9l0.8,1c0,0,0,0,0,0l5.7,7.9C55.4,412.5,55.2,413,54.5,413
		z"/>
	<path class="st2" d="z"/>
</g>
</svg>
