<?xml version="1.0" encoding="utf-8"?>
<!-- Generator: Adobe Illustrator 19.1.0, SVG Export Plug-In . SVG Version: 6.00 Build 0)  -->
<svg version="1.1" id="Layer_1" xmlns="http://www.w3.org/2000/svg" xmlns:xlink="http://www.w3.org/1999/xlink" x="0px" y="0px"
	 viewBox="0 0 23.4 23.4" style="enable-background:new 0 0 23.4 23.4;" xml:space="preserve">
<style type="text/css">
	.st0{fill:#ADB0B2;}
	.st1{fill:#00B259;}
	.st2{fill:#013A81;}
</style>
<path class="st0" d="M15,3.3c0,1.8-1.5,3.3-3.3,3.3c-1.8,0-3.3-1.5-3.3-3.3C8.4,1.5,9.9,0,11.7,0C13.5,0,15,1.5,15,3.3"/>
<path class="st0" d="M6.6,11.7c0,1.8-1.5,3.3-3.3,3.3C1.5,15,0,13.5,0,11.7c0-1.8,1.5-3.3,3.3-3.3C5.1,8.4,6.6,9.9,6.6,11.7"/>
<path class="st0" d="M23.4,11.7c0,1.8-1.5,3.3-3.3,3.3c-1.8,0-3.3-1.5-3.3-3.3c0-1.8,1.5-3.3,3.3-3.3C21.9,8.4,23.4,9.9,23.4,11.7"
	/>
<path class="st0" d="M15,20.1c0,1.8-1.5,3.3-3.3,3.3c-1.8,0-3.3-1.5-3.3-3.3c0-1.8,1.5-3.3,3.3-3.3C13.5,16.8,15,18.2,15,20.1"/>
<path class="st1" d="M23.4,20.1c0,1.8-1.5,3.3-3.3,3.3c-1.8,0-3.3-1.5-3.3-3.3c0-1.8,1.5-3.3,3.3-3.3C21.9,16.8,23.4,18.2,23.4,20.1
	"/>
<path class="st2" d="M20.1,0c-1.8,0-3.3,1.5-3.3,3.3c0,2.8-2.3,5.1-5.1,5.1c-2.8,0-5.1-2.3-5.1-5.1C6.6,1.5,5.1,0,3.3,0
	C1.5,0,0,1.5,0,3.3c0,1.8,1.5,3.3,3.3,3.3c0,0,0,0,0,0c2.8,0,5.1,2.3,5.1,5.1c0,0,0,0,0,0s0,0,0,0c0,2.8-2.3,5.1-5.1,5.1
	c-1.8,0-3.3,1.5-3.3,3.3c0,1.8,1.5,3.3,3.3,3.3c1.8,0,3.3-1.5,3.3-3.3c0-2.8,2.3-5.1,5.1-5.1h0c1.8,0,3.3-1.5,3.3-3.3
	c0-2.8,2.3-5.1,5.1-5.1c0,0,0,0,0,0c1.8,0,3.3-1.5,3.3-3.3C23.4,1.5,21.9,0,20.1,0"/>
</svg>
